<svg width="38" height="36" viewBox="0 0 38 36" fill="none" xmlns="http://www.w3.org/2000/svg">
<path d="M19 0C8.54999 0 0 8.11446 0 18.1084C0 27.1446 6.95399 34.6446 16.036 36V23.3494H11.21V18.1084H16.036V14.1145C16.036 9.57831 18.867 7.08434 23.218 7.08434C25.289 7.08434 27.455 7.42771 27.455 7.42771V11.8916H25.061C22.705 11.8916 21.964 13.2831 21.964 14.7108V18.1084H27.246L26.391 23.3494H21.964V36C26.4412 35.3274 30.5182 33.1545 33.4588 29.8736C36.3995 26.5927 38.0101 22.4198 38 18.1084C38 8.11446 29.45 0 19 0Z" fill="black"/>
</svg>
