<svg width="38" height="37" viewBox="0 0 38 37" fill="none" xmlns="http://www.w3.org/2000/svg">
<path d="M11.02 0H26.98C33.06 0 38 4.81 38 10.73V26.27C38 29.1158 36.839 31.845 34.7723 33.8573C32.7057 35.8695 29.9027 37 26.98 37H11.02C4.94 37 0 32.19 0 26.27V10.73C0 7.88423 1.16103 5.15501 3.22768 3.14274C5.29433 1.13048 8.09731 0 11.02 0ZM10.64 3.7C8.82592 3.7 7.08614 4.40168 5.80339 5.65067C4.52064 6.89966 3.8 8.59366 3.8 10.36V26.64C3.8 30.3215 6.859 33.3 10.64 33.3H27.36C29.1741 33.3 30.9139 32.5983 32.1966 31.3493C33.4794 30.1003 34.2 28.4063 34.2 26.64V10.36C34.2 6.6785 31.141 3.7 27.36 3.7H10.64ZM28.975 6.475C29.6049 6.475 30.209 6.71864 30.6544 7.15232C31.0998 7.58599 31.35 8.17419 31.35 8.7875C31.35 9.40081 31.0998 9.98901 30.6544 10.4227C30.209 10.8564 29.6049 11.1 28.975 11.1C28.3451 11.1 27.741 10.8564 27.2956 10.4227C26.8502 9.98901 26.6 9.40081 26.6 8.7875C26.6 8.17419 26.8502 7.58599 27.2956 7.15232C27.741 6.71864 28.3451 6.475 28.975 6.475ZM19 9.25C21.5196 9.25 23.9359 10.2246 25.7175 11.9593C27.4991 13.694 28.5 16.0467 28.5 18.5C28.5 20.9533 27.4991 23.306 25.7175 25.0407C23.9359 26.7754 21.5196 27.75 19 27.75C16.4804 27.75 14.0641 26.7754 12.2825 25.0407C10.5009 23.306 9.5 20.9533 9.5 18.5C9.5 16.0467 10.5009 13.694 12.2825 11.9593C14.0641 10.2246 16.4804 9.25 19 9.25ZM19 12.95C17.4883 12.95 16.0384 13.5347 14.9695 14.5756C13.9005 15.6164 13.3 17.028 13.3 18.5C13.3 19.972 13.9005 21.3836 14.9695 22.4244C16.0384 23.4653 17.4883 24.05 19 24.05C20.5117 24.05 21.9616 23.4653 23.0305 22.4244C24.0995 21.3836 24.7 19.972 24.7 18.5C24.7 17.028 24.0995 15.6164 23.0305 14.5756C21.9616 13.5347 20.5117 12.95 19 12.95Z" fill="black"/>
</svg>
